<?xml version="1.0" encoding="UTF-8" standalone="no"?>
<!-- Created with Inkscape (http://www.inkscape.org/) -->
<svg
   xmlns:svg="http://www.w3.org/2000/svg"
   xmlns="http://www.w3.org/2000/svg"
   version="1.0"
   width="1600"
   height="1200"
   id="svg8839">
  <defs
     id="defs8841" />
  <g
     id="layer1">
    <rect
       width="1600"
       height="1200"
       x="0"
       y="0"
       style="fill:#559dcc;fill-opacity:1;fill-rule:nonzero;stroke:none;stroke-width:1;stroke-linecap:butt;stroke-linejoin:miter;stroke-miterlimit:4;stroke-dasharray:none;stroke-dashoffset:0;stroke-opacity:1;display:inline"
       id="rect8727" />
    <path
       d="M -30.66086,-192.67737 C -53.21946,-192.67737 -71.91256,-176.01136 -75.09196,-154.33095 C -75.88726,-154.40167 -76.68736,-154.44746 -77.49986,-154.44746 C -93.02116,-154.44746 -105.66146,-141.26834 -106.00726,-124.9044 C -108.60036,-126.35289 -111.57956,-127.18293 -114.75886,-127.18293 C -124.69436,-127.18293 -132.76696,-119.11031 -132.76696,-109.17486 C -132.76696,-99.23941 -122.60116,-88.34579 -112.66566,-88.34579 C -28.46076,-88.07464 27.48624,-87.23427 111.39924,-87.78173 C 122.69664,-87.78173 133.02994,-93.13915 133.02994,-104.43658 C 133.02994,-115.73402 123.85954,-124.9044 112.56214,-124.9044 C 109.61664,-124.9044 106.82084,-124.27841 104.28954,-123.15668 C 99.70344,-130.75088 91.37954,-135.83093 81.86684,-135.83094 C 78.12124,-135.83094 74.55184,-135.0359 71.32884,-133.61715 C 69.53344,-145.14392 59.56144,-153.9814 47.53384,-153.9814 C 38.03854,-153.9814 29.82364,-148.48003 25.90074,-140.49154 C 22.39274,-142.56803 18.38384,-143.90015 14.10684,-144.25886 C 14.19694,-145.41967 14.24924,-146.58347 14.24924,-147.76727 C 14.24924,-172.55508 -5.87306,-192.67737 -30.66086,-192.67737 z "
       style="fill:#ffffff;fill-opacity:1;fill-rule:nonzero;stroke:none;stroke-width:1;stroke-linecap:butt;stroke-linejoin:miter;stroke-miterlimit:4;stroke-dasharray:none;stroke-dashoffset:0;stroke-opacity:1;display:inline"
       id="path8729" />
    <path
       d="M 25.67564,-39.0533 C -11.70026,-39.0533 -42.67176,-11.44047 -47.93946,24.48041 C -49.25706,24.36323 -50.58296,24.28736 -51.92906,24.28736 C -77.64516,24.28736 -98.58806,46.12299 -99.16106,73.23534 C -103.45736,70.83545 -108.39346,69.46021 -113.66096,69.46021 C -130.12236,69.46021 -143.49736,82.8352 -143.49736,99.2966 C -143.49736,115.758 -126.65426,133.80694 -110.19286,133.80696 C 29.32064,134.2562 122.01564,135.64856 261.04574,134.74151 C 279.76374,134.74151 296.88434,125.86515 296.88434,107.14715 C 296.88434,88.42916 281.69044,73.23534 262.97244,73.23534 C 258.09234,73.23534 253.46014,74.2725 249.26614,76.13104 C 241.66764,63.5487 227.87634,55.13189 212.11544,55.13187 C 205.90954,55.13187 199.99574,56.44913 194.65554,58.79976 C 191.68094,39.7018 175.15904,25.05954 155.23114,25.05954 C 139.49924,25.05954 125.88854,34.17441 119.38884,47.41002 C 113.57664,43.96963 106.93464,41.76251 99.84834,41.1682 C 99.99754,39.24492 100.08424,37.31671 100.08424,35.35535 C 100.08424,-5.71397 66.74494,-39.0533 25.67564,-39.0533 z "
       style="fill:#ffffff;fill-opacity:1;fill-rule:nonzero;stroke:none;stroke-width:1;stroke-linecap:butt;stroke-linejoin:miter;stroke-miterlimit:4;stroke-dasharray:none;stroke-dashoffset:0;stroke-opacity:1;display:inline"
       id="path8731" />
    <path
       d="M 116.85894,174.81364 C 78.09744,174.81364 45.97744,203.45028 40.51454,240.70301 C 39.14804,240.58148 37.77304,240.5028 36.37694,240.5028 C 9.70734,240.5028 -12.01206,263.14805 -12.60626,291.26565 C -17.06186,288.77677 -22.18086,287.35054 -27.64386,287.35054 C -44.71546,287.35054 -58.58646,301.22144 -58.58646,318.29319 C -58.58646,335.36494 -41.11886,354.08308 -24.04716,354.08309 C 120.63914,354.54899 216.77104,355.99298 360.95604,355.05229 C 380.36814,355.05229 398.12334,345.84682 398.12334,326.43481 C 398.12334,307.02281 382.36634,291.26565 362.95424,291.26565 C 357.89314,291.26565 353.08914,292.34127 348.73974,294.26871 C 340.85944,281.21985 326.55684,272.49097 310.21164,272.49095 C 303.77554,272.49095 297.64244,273.85704 292.10424,276.29483 C 289.01944,256.48877 271.88494,241.30362 251.21814,241.30362 C 234.90294,241.30362 220.78764,250.75644 214.04694,264.4828 C 208.01924,260.91484 201.13084,258.62589 193.78184,258.00954 C 193.93654,256.01495 194.02664,254.01525 194.02664,251.98116 C 194.02664,209.3891 159.45104,174.81364 116.85894,174.81364 z "
       style="fill:#ffffff;fill-opacity:1;fill-rule:nonzero;stroke:none;stroke-width:1;stroke-linecap:butt;stroke-linejoin:miter;stroke-miterlimit:4;stroke-dasharray:none;stroke-dashoffset:0;stroke-opacity:1;display:inline"
       id="path8733" />
    <path
       d="M 305.92714,361.56415 C 272.73424,361.56415 245.22894,386.08666 240.55084,417.98741 C 239.38074,417.88335 238.20314,417.81597 237.00784,417.81597 C 214.16984,417.81597 195.57054,437.20785 195.06194,461.28589 C 191.24624,459.15458 186.86274,457.93325 182.18454,457.93325 C 167.56554,457.93325 155.68734,469.8114 155.68734,484.4305 C 155.68734,499.0496 170.64544,515.0786 185.26474,515.0786 C 309.16444,515.4775 391.48514,516.7141 514.95584,515.9085 C 531.57874,515.9085 546.78324,508.0256 546.78324,491.4024 C 546.78324,474.7793 533.28994,461.28589 516.66674,461.28589 C 512.33274,461.28589 508.21894,462.20698 504.49434,463.85751 C 497.74624,452.68334 485.49854,445.2085 471.50154,445.20849 C 465.99004,445.20849 460.73824,446.37832 455.99554,448.46588 C 453.35384,431.50529 438.68104,418.50174 420.98334,418.50174 C 407.01204,418.50174 394.92464,426.5965 389.15244,438.35084 C 383.99074,435.29548 378.09204,433.33538 371.79874,432.80757 C 371.93124,431.09954 372.00844,429.38713 372.00844,427.64527 C 372.00844,391.17227 342.40014,361.56415 305.92714,361.56415 z "
       style="fill:#ffffff;fill-opacity:1;fill-rule:nonzero;stroke:none;stroke-width:1;stroke-linecap:butt;stroke-linejoin:miter;stroke-miterlimit:4;stroke-dasharray:none;stroke-dashoffset:0;stroke-opacity:1;display:inline"
       id="path8735" />
    <path
       d="M -0.16726,544.20826 C -31.03686,544.20826 -56.61706,567.01436 -60.96776,596.68236 C -62.05606,596.58556 -63.15116,596.52286 -64.26286,596.52286 C -85.50236,596.52286 -102.79976,614.55746 -103.27296,636.95026 C -106.82136,634.96816 -110.89826,633.83226 -115.24876,633.83226 C -128.84476,633.83226 -139.89146,644.87906 -139.89146,658.47486 C -139.89146,672.07076 -125.98026,686.97786 -112.38446,686.97786 C 2.84324,687.34886 79.40234,688.49886 194.23084,687.74976 C 209.69054,687.74976 223.83084,680.41856 223.83084,664.95886 C 223.83084,649.49926 211.28184,636.95026 195.82224,636.95026 C 191.79154,636.95026 187.96574,637.80686 184.50174,639.34186 C 178.22604,628.94986 166.83554,621.99816 153.81804,621.99816 C 148.69244,621.99816 143.80814,623.08616 139.39744,625.02756 C 136.94074,609.25406 123.29484,597.16066 106.83604,597.16066 C 93.84254,597.16066 82.60104,604.68886 77.23284,615.62046 C 72.43244,612.77896 66.94664,610.95606 61.09384,610.46526 C 61.21704,608.87676 61.28864,607.28416 61.28864,605.66426 C 61.28864,571.74406 33.75304,544.20826 -0.16726,544.20826 z "
       style="fill:#ffffff;fill-opacity:1;fill-rule:nonzero;stroke:none;stroke-width:1;stroke-linecap:butt;stroke-linejoin:miter;stroke-miterlimit:4;stroke-dasharray:none;stroke-dashoffset:0;stroke-opacity:1;display:inline"
       id="path8737" />
    <path
       d="M 356.74364,800.44726 C 335.09314,800.44726 317.15254,816.44236 314.10124,837.24986 C 313.33804,837.18206 312.57004,837.13806 311.79034,837.13806 C 296.89384,837.13806 284.76254,849.78656 284.43064,865.49176 C 281.94194,864.10156 279.08264,863.30496 276.03144,863.30496 C 266.49594,863.30496 258.74824,871.05256 258.74824,880.58796 C 258.74824,890.12346 268.50484,900.57846 278.04034,900.57846 C 358.85494,900.83876 412.54954,901.64526 493.08424,901.11986 C 503.92684,901.11986 513.84414,895.97806 513.84414,885.13546 C 513.84414,874.29286 505.04304,865.49176 494.20044,865.49176 C 491.37354,865.49176 488.69024,866.09246 486.26084,867.16906 C 481.85934,859.88066 473.87054,855.00506 464.74094,855.00506 C 461.14604,855.00506 457.72044,855.76816 454.62714,857.12976 C 452.90394,846.06706 443.33354,837.58536 431.79004,837.58536 C 422.67714,837.58536 414.79304,842.86526 411.02794,850.53216 C 407.66134,848.53926 403.81384,847.26076 399.70904,846.91646 C 399.79534,845.80236 399.84564,844.68546 399.84564,843.54936 C 399.84564,819.75946 380.53344,800.44726 356.74364,800.44726 z "
       style="fill:#ffffff;fill-opacity:1;fill-rule:nonzero;stroke:none;stroke-width:1;stroke-linecap:butt;stroke-linejoin:miter;stroke-miterlimit:4;stroke-dasharray:none;stroke-dashoffset:0;stroke-opacity:1;display:inline"
       id="path8739" />
    <path
       d="M 213.76204,907.49406 C 204.10434,907.49406 196.10134,914.62906 194.74024,923.91096 C 194.39974,923.88066 194.05714,923.86106 193.70934,923.86106 C 187.06454,923.86106 181.65284,929.50326 181.50474,936.50896 C 180.39464,935.88886 179.11914,935.53356 177.75804,935.53356 C 173.50444,935.53356 170.04844,938.98956 170.04844,943.24316 C 170.04844,947.49666 174.40064,952.16046 178.65414,952.16046 C 214.70394,952.27656 238.65594,952.63636 274.58084,952.40196 C 279.41754,952.40196 283.84154,950.10836 283.84154,945.27166 C 283.84154,940.43506 279.91534,936.50896 275.07874,936.50896 C 273.81774,936.50896 272.62074,936.77696 271.53704,937.25726 C 269.57364,934.00606 266.01004,931.83116 261.93744,931.83116 C 260.33384,931.83116 258.80574,932.17156 257.42584,932.77886 C 256.65724,927.84406 252.38804,924.06056 247.23874,924.06056 C 243.17364,924.06056 239.65674,926.41576 237.97734,929.83586 C 236.47554,928.94686 234.75924,928.37656 232.92804,928.22296 C 232.96664,927.72596 232.98904,927.22776 232.98904,926.72096 C 232.98904,916.10876 224.37424,907.49406 213.76204,907.49406 z "
       style="fill:#ffffff;fill-opacity:1;fill-rule:nonzero;stroke:none;stroke-width:1;stroke-linecap:butt;stroke-linejoin:miter;stroke-miterlimit:4;stroke-dasharray:none;stroke-dashoffset:0;stroke-opacity:1;display:inline"
       id="path8741" />
    <path
       d="M 68.12124,982.15146 C 32.62864,982.15146 3.21764,1008.373 -1.78456,1042.484 C -3.03586,1042.3727 -4.29496,1042.3006 -5.57316,1042.3006 C -29.99356,1042.3006 -49.88116,1063.036 -50.42526,1088.7823 C -54.50506,1086.5033 -59.19246,1085.1974 -64.19466,1085.1974 C -79.82656,1085.1974 -92.52766,1097.8984 -92.52766,1113.5304 C -92.52766,1129.1623 -76.53326,1146.3018 -60.90136,1146.3018 C 71.58244,1146.7284 159.60694,1148.0506 291.63174,1147.1892 C 309.40654,1147.1892 325.66454,1138.7601 325.66454,1120.9854 C 325.66454,1103.2105 311.23624,1088.7823 293.46144,1088.7823 C 288.82704,1088.7823 284.42844,1089.7672 280.44574,1091.5321 C 273.23014,1079.5837 260.13364,1071.5911 245.16694,1071.5911 C 239.27374,1071.5911 233.65794,1072.842 228.58674,1075.0742 C 225.76204,1056.9384 210.07264,1043.0339 191.14884,1043.0339 C 176.20964,1043.0339 163.28474,1051.6895 157.11254,1064.2583 C 151.59324,1060.9912 145.28584,1058.8953 138.55654,1058.3309 C 138.69834,1056.5045 138.78064,1054.6735 138.78064,1052.8109 C 138.78064,1013.811 107.12104,982.15146 68.12124,982.15146 z "
       style="fill:#ffffff;fill-opacity:1;fill-rule:nonzero;stroke:none;stroke-width:1;stroke-linecap:butt;stroke-linejoin:miter;stroke-miterlimit:4;stroke-dasharray:none;stroke-dashoffset:0;stroke-opacity:1;display:inline"
       id="path8743" />
    <path
       d="M 91.43904,1206.4581 C 52.45964,1206.4581 20.15934,1235.2555 14.66574,1272.7174 C 13.29154,1272.5952 11.90874,1272.5161 10.50494,1272.5161 C -16.31446,1272.5161 -38.15586,1295.2886 -38.75346,1323.5641 C -43.23406,1321.0612 -48.38196,1319.627 -53.87546,1319.627 C -71.04306,1319.627 -84.99186,1333.5758 -84.99186,1350.7434 C -84.99186,1367.9111 -67.42616,1386.7344 -50.25856,1386.7344 C 95.24044,1387.2029 191.91224,1388.655 336.90714,1387.709 C 356.42824,1387.709 374.28324,1378.4518 374.28324,1358.9308 C 374.28324,1339.4098 358.43754,1323.5641 338.91654,1323.5641 C 333.82704,1323.5641 328.99614,1324.6457 324.62224,1326.584 C 316.69774,1313.4619 302.31474,1304.684 285.87764,1304.6839 C 279.40554,1304.6839 273.23794,1306.0577 267.66864,1308.5092 C 264.56644,1288.5919 247.33574,1273.3214 226.55284,1273.3214 C 210.14594,1273.3214 195.95134,1282.8273 189.17284,1296.6308 C 183.11124,1293.0428 176.18424,1290.741 168.79394,1290.1212 C 168.94954,1288.1154 169.03994,1286.1045 169.03994,1284.0589 C 169.03994,1241.2276 134.27034,1206.4581 91.43904,1206.4581 z "
       style="fill:#ffffff;fill-opacity:1;fill-rule:nonzero;stroke:none;stroke-width:1;stroke-linecap:butt;stroke-linejoin:miter;stroke-miterlimit:4;stroke-dasharray:none;stroke-dashoffset:0;stroke-opacity:1;display:inline"
       id="path8745" />
    <path
       d="M 399.70074,-445.30546 C 447.47814,-445.30546 487.06894,-410.0081 493.80254,-364.0906 C 495.48694,-364.24039 497.18174,-364.33737 498.90244,-364.33737 C 531.77524,-364.33737 558.54644,-336.42497 559.27894,-301.76738 C 564.77084,-304.83515 571.08064,-306.59311 577.81424,-306.59311 C 598.85664,-306.59311 615.95384,-289.49592 615.95384,-268.45337 C 615.95384,-247.41084 594.42344,-224.33897 573.38084,-224.33895 C 395.04134,-223.76469 276.54984,-221.98484 98.82814,-223.14432 C 74.90104,-223.14432 53.01584,-234.49094 53.01584,-258.41805 C 53.01584,-282.34518 72.43804,-301.76738 96.36524,-301.76738 C 102.60344,-301.76738 108.52474,-300.44157 113.88584,-298.06582 C 123.59904,-314.14977 141.22834,-324.90894 161.37544,-324.90896 C 169.30844,-324.90896 176.86814,-323.22512 183.69444,-320.22032 C 187.49684,-344.63315 208.61664,-363.35029 234.09044,-363.35029 C 254.20054,-363.35029 271.59904,-351.6988 279.90744,-334.77977 C 287.33724,-339.17761 295.82774,-341.99896 304.88624,-342.75867 C 304.69534,-345.21719 304.58454,-347.68201 304.58454,-350.18921 C 304.58454,-402.68795 347.20204,-445.30546 399.70074,-445.30546 z "
       style="fill:#ffffff;fill-opacity:1;fill-rule:nonzero;stroke:none;stroke-width:1;stroke-linecap:butt;stroke-linejoin:miter;stroke-miterlimit:4;stroke-dasharray:none;stroke-dashoffset:0;stroke-opacity:1;display:inline"
       id="path8747" />
    <path
       d="M 585.42614,-216.55995 C 624.33624,-216.55995 656.57904,-187.81362 662.06294,-150.4182 C 663.43474,-150.54019 664.81514,-150.61917 666.21624,-150.61917 C 692.98824,-150.61917 714.79084,-127.88718 715.38714,-99.66188 C 719.85974,-102.16029 724.99864,-103.59198 730.48244,-103.59198 C 747.61954,-103.59198 761.54354,-89.66795 761.54354,-72.5308 C 761.54354,-55.39366 744.00904,-36.60383 726.87184,-36.60382 C 581.63134,-36.13613 485.13134,-34.68662 340.39394,-35.6309 C 320.90774,-35.6309 303.08444,-44.87164 303.08444,-64.35799 C 303.08444,-83.84436 318.90194,-99.66188 338.38804,-99.66188 C 343.46854,-99.66188 348.29094,-98.58214 352.65724,-96.64732 C 360.56744,-109.74615 374.92494,-118.50848 391.33274,-118.50849 C 397.79354,-118.50849 403.95004,-117.13716 409.50944,-114.69004 C 412.60614,-134.57196 429.80624,-149.81528 450.55214,-149.81528 C 466.93004,-149.81528 481.09934,-140.32626 487.86594,-126.54732 C 493.91674,-130.12895 500.83134,-132.42666 508.20854,-133.04538 C 508.05324,-135.0476 507.96304,-137.05496 507.96304,-139.09684 C 507.96304,-181.85205 542.67084,-216.55995 585.42614,-216.55995 z "
       style="fill:#ffffff;fill-opacity:1;fill-rule:nonzero;stroke:none;stroke-width:1;stroke-linecap:butt;stroke-linejoin:miter;stroke-miterlimit:4;stroke-dasharray:none;stroke-dashoffset:0;stroke-opacity:1;display:inline"
       id="path8749" />
    <path
       d="M 580.31794,188.90027 C 593.70044,188.90027 604.78984,198.78712 606.67594,211.64869 C 607.14774,211.60673 607.62254,211.57957 608.10444,211.57957 C 617.31214,211.57957 624.81084,219.39788 625.01604,229.10554 C 626.55434,228.24625 628.32174,227.75384 630.20774,227.75384 C 636.10184,227.75384 640.89074,232.54279 640.89074,238.43685 C 640.89074,244.3309 634.86004,250.79337 628.96594,250.79338 C 579.01274,250.95423 545.82304,251.45277 496.04294,251.128 C 489.34094,251.128 483.21084,247.94979 483.21084,241.24776 C 483.21084,234.54573 488.65104,229.10554 495.35304,229.10554 C 497.10044,229.10554 498.75894,229.4769 500.26064,230.14235 C 502.98134,225.63721 507.91934,222.62354 513.56254,222.62354 C 515.78464,222.62354 517.90204,223.09518 519.81414,223.93683 C 520.87914,217.09876 526.79494,211.85605 533.93014,211.85605 C 539.56304,211.85605 544.43634,215.11966 546.76354,219.85871 C 548.84464,218.62686 551.22284,217.8366 553.76014,217.6238 C 553.70674,216.93517 553.67564,216.24477 553.67564,215.5425 C 553.67564,200.83751 565.61294,188.90027 580.31794,188.90027 z "
       style="fill:#ffffff;fill-opacity:1;fill-rule:nonzero;stroke:none;stroke-width:1;stroke-linecap:butt;stroke-linejoin:miter;stroke-miterlimit:4;stroke-dasharray:none;stroke-dashoffset:0;stroke-opacity:1;display:inline"
       id="path8751" />
    <path
       d="M 486.21254,522.37559 C 498.90564,522.37559 509.42394,531.75316 511.21274,543.95226 C 511.66044,543.91246 512.11064,543.88666 512.56764,543.88666 C 521.30124,543.88666 528.41364,551.30226 528.60824,560.50986 C 530.06734,559.69486 531.74354,559.22776 533.53244,559.22776 C 539.12284,559.22776 543.66534,563.77006 543.66534,569.36046 C 543.66534,574.95096 537.94504,581.08056 532.35474,581.08056 C 484.97474,581.23316 453.49444,581.70596 406.27864,581.39796 C 399.92174,581.39796 394.10744,578.38346 394.10744,572.02656 C 394.10744,565.66976 399.26754,560.50986 405.62444,560.50986 C 407.28154,560.50986 408.85474,560.86206 410.27914,561.49326 C 412.85964,557.22016 417.54324,554.36176 422.89574,554.36176 C 425.00334,554.36176 427.01174,554.80906 428.82544,555.60736 C 429.83544,549.12156 435.44644,544.14886 442.21414,544.14886 C 447.55694,544.14886 452.17924,547.24436 454.38654,551.73936 C 456.36054,550.57096 458.61614,549.82136 461.02284,549.61956 C 460.97204,548.96636 460.94254,548.31156 460.94254,547.64546 C 460.94254,533.69796 472.26494,522.37559 486.21254,522.37559 z "
       style="fill:#ffffff;fill-opacity:1;fill-rule:nonzero;stroke:none;stroke-width:1;stroke-linecap:butt;stroke-linejoin:miter;stroke-miterlimit:4;stroke-dasharray:none;stroke-dashoffset:0;stroke-opacity:1;display:inline"
       id="path8753" />
    <path
       d="M 694.89444,587.70016 C 739.23734,587.70016 775.98195,620.46006 782.23145,663.07656 C 783.79475,662.93756 785.36765,662.84756 786.96475,662.84756 C 817.47425,662.84756 842.32095,688.75336 843.00075,720.91956 C 848.09795,718.07226 853.95405,716.44066 860.20355,716.44066 C 879.73335,716.44066 895.60155,732.30876 895.60155,751.83866 C 895.60155,771.36846 875.61875,792.78176 856.08895,792.78176 C 690.57004,793.31476 580.59654,794.96666 415.65094,793.89056 C 393.44384,793.89056 373.13204,783.35956 373.13204,761.15256 C 373.13204,738.94546 391.15814,720.91956 413.36504,720.91956 C 419.15504,720.91956 424.65044,722.14996 429.62624,724.35496 C 438.64104,709.42726 455.00314,699.44156 473.70184,699.44156 C 481.06464,699.44156 488.08084,701.00436 494.41634,703.79316 C 497.94544,681.13526 517.54704,663.76366 541.18954,663.76366 C 559.85384,663.76366 576.00164,674.57756 583.71294,690.28036 C 590.60844,686.19866 598.48864,683.58006 606.89574,682.87496 C 606.71884,680.59326 606.61584,678.30556 606.61584,675.97866 C 606.61584,627.25396 646.16974,587.70016 694.89444,587.70016 z "
       style="fill:#ffffff;fill-opacity:1;fill-rule:nonzero;stroke:none;stroke-width:1;stroke-linecap:butt;stroke-linejoin:miter;stroke-miterlimit:4;stroke-dasharray:none;stroke-dashoffset:0;stroke-opacity:1;display:inline"
       id="path8755" />
    <path
       d="M 697.67774,907.49406 C 739.57424,907.49406 774.29175,938.44666 780.19655,978.71216 C 781.67355,978.58076 783.15985,978.49576 784.66875,978.49576 C 813.49515,978.49576 836.97115,1002.9724 837.61345,1033.364 C 842.42935,1030.6739 847.96245,1029.1323 853.86715,1029.1323 C 872.31955,1029.1323 887.31225,1044.125 887.31225,1062.5774 C 887.31225,1081.0298 868.43195,1101.2618 849.97955,1101.2618 C 693.59184,1101.7654 589.68544,1103.3261 433.83954,1102.3094 C 412.85764,1102.3094 393.66634,1092.3594 393.66634,1071.3775 C 393.66634,1050.3956 410.69784,1033.364 431.67984,1033.364 C 437.15024,1033.364 442.34264,1034.5266 447.04384,1036.61 C 455.56144,1022.5058 471.02074,1013.071 488.68794,1013.0709 C 495.64444,1013.0709 502.27354,1014.5475 508.25974,1017.1824 C 511.59404,995.77456 530.11424,979.36136 552.45244,979.36136 C 570.08714,979.36136 585.34414,989.57866 592.62984,1004.4151 C 599.14504,1000.5586 606.59044,998.08446 614.53384,997.41826 C 614.36654,995.26246 614.26944,993.10096 614.26944,990.90236 C 614.26944,944.86576 651.64114,907.49406 697.67774,907.49406 z "
       style="fill:#ffffff;fill-opacity:1;fill-rule:nonzero;stroke:none;stroke-width:1;stroke-linecap:butt;stroke-linejoin:miter;stroke-miterlimit:4;stroke-dasharray:none;stroke-dashoffset:0;stroke-opacity:1;display:inline"
       id="path8757" />
    <path
       d="M 425.45234,1108.8465 C 438.34984,1108.8465 449.03744,1118.375 450.85524,1130.7705 C 451.30984,1130.7301 451.76744,1130.7039 452.23194,1130.7039 C 461.10604,1130.7039 468.33284,1138.2388 468.53054,1147.5947 C 470.01304,1146.7665 471.71654,1146.292 473.53414,1146.292 C 479.21454,1146.292 483.83004,1150.9074 483.83004,1156.5878 C 483.83004,1162.2683 478.01784,1168.4965 472.33734,1168.4965 C 424.19454,1168.6516 392.20764,1169.132 344.23154,1168.819 C 337.77244,1168.819 331.86454,1165.756 331.86454,1159.2969 C 331.86454,1152.8377 337.10754,1147.5947 343.56664,1147.5947 C 345.25074,1147.5947 346.84924,1147.9526 348.29644,1148.5939 C 350.91854,1144.2521 355.67754,1141.3476 361.11634,1141.3476 C 363.25774,1141.3476 365.29844,1141.8022 367.14124,1142.6133 C 368.16774,1136.023 373.86914,1130.9703 380.74584,1130.9703 C 386.17444,1130.9703 390.87124,1134.1157 393.11414,1138.683 C 395.11974,1137.4958 397.41184,1136.7341 399.85704,1136.5291 C 399.80564,1135.8654 399.77564,1135.2 399.77564,1134.5232 C 399.77564,1120.3511 411.28024,1108.8465 425.45234,1108.8465 z "
       style="fill:#ffffff;fill-opacity:1;fill-rule:nonzero;stroke:none;stroke-width:1;stroke-linecap:butt;stroke-linejoin:miter;stroke-miterlimit:4;stroke-dasharray:none;stroke-dashoffset:0;stroke-opacity:1;display:inline"
       id="path8759" />
    <path
       d="M 643.51014,1175.1228 C 679.75844,1175.1228 709.79564,1201.9026 714.90444,1236.7398 C 716.18224,1236.6261 717.46824,1236.5526 718.77364,1236.5526 C 743.71394,1236.5526 764.02504,1257.7295 764.58074,1284.0239 C 768.74754,1281.6964 773.53465,1280.3627 778.64325,1280.3627 C 794.60815,1280.3627 807.57965,1293.3342 807.57965,1309.2989 C 807.57965,1325.2637 791.24455,1342.7682 775.27975,1342.7682 C 639.97504,1343.2039 550.07654,1344.5542 415.24064,1343.6746 C 397.08734,1343.6746 380.48324,1335.066 380.48324,1316.9127 C 380.48324,1298.7594 395.21874,1284.0239 413.37204,1284.0239 C 418.10504,1284.0239 422.59734,1285.0298 426.66484,1286.8322 C 434.03404,1274.6295 447.40934,1266.4666 462.69484,1266.4666 C 468.71344,1266.4666 474.44894,1267.7441 479.62794,1270.0238 C 482.51274,1251.502 498.53624,1237.3015 517.86304,1237.3015 C 533.12034,1237.3015 546.32044,1246.1414 552.62394,1258.9777 C 558.26094,1255.6411 564.70254,1253.5005 571.57504,1252.9242 C 571.43044,1251.0589 571.34634,1249.1889 571.34634,1247.2867 C 571.34634,1207.4563 603.67994,1175.1228 643.51014,1175.1228 z "
       style="fill:#ffffff;fill-opacity:1;fill-rule:nonzero;stroke:none;stroke-width:1;stroke-linecap:butt;stroke-linejoin:miter;stroke-miterlimit:4;stroke-dasharray:none;stroke-dashoffset:0;stroke-opacity:1;display:inline"
       id="path8761" />
    <path
       d="M 701.45614,1350.1662 C 741.34144,1350.1662 774.39235,1379.633 780.01375,1417.9656 C 781.41985,1417.8406 782.83485,1417.7596 784.27125,1417.7596 C 811.71405,1417.7596 834.06305,1441.0613 834.67455,1469.9941 C 839.25925,1467.433 844.52675,1465.9655 850.14805,1465.9655 C 867.71465,1465.9655 881.98765,1480.2385 881.98765,1497.8051 C 881.98765,1515.3718 864.01365,1534.6325 846.44705,1534.6325 C 697.56634,1535.1119 598.64774,1536.5978 450.28284,1535.6298 C 430.30814,1535.6298 412.03804,1526.1575 412.03804,1506.1828 C 412.03804,1486.208 428.25204,1469.9941 448.22674,1469.9941 C 453.43454,1469.9941 458.37774,1471.1009 462.85324,1473.0842 C 470.96204,1459.657 485.67924,1450.6751 502.49844,1450.6751 C 509.12084,1450.6751 515.43184,1452.0808 521.13064,1454.5892 C 524.30494,1434.209 541.93604,1418.5837 563.20204,1418.5837 C 579.99024,1418.5837 594.51464,1428.3105 601.45084,1442.4348 C 607.65314,1438.7634 614.74124,1436.4081 622.30334,1435.7739 C 622.14414,1433.7215 622.05154,1431.6638 622.05154,1429.5707 C 622.05154,1385.744 657.62934,1350.1662 701.45614,1350.1662 z "
       style="fill:#ffffff;fill-opacity:1;fill-rule:nonzero;stroke:none;stroke-width:1;stroke-linecap:butt;stroke-linejoin:miter;stroke-miterlimit:4;stroke-dasharray:none;stroke-dashoffset:0;stroke-opacity:1;display:inline"
       id="path8763" />
    <path
       d="M 638.60074,-653.50516 C 595.23424,-653.50516 559.29864,-621.46651 553.18664,-579.78821 C 551.65784,-579.92417 550.11934,-580.0122 548.55754,-580.0122 C 518.71964,-580.0122 494.41994,-554.67672 493.75514,-523.21878 C 488.77024,-526.00334 483.04304,-527.599 476.93114,-527.599 C 457.83134,-527.599 442.31254,-512.08025 442.31254,-492.9804 C 442.31254,-473.88054 461.85534,-452.93871 480.95514,-452.93869 C 642.83004,-452.41744 750.38224,-450.80191 911.69625,-451.85435 C 933.41425,-451.85435 953.27895,-462.15342 953.27895,-483.87156 C 953.27895,-505.58969 935.64995,-523.21878 913.93185,-523.21878 C 908.26945,-523.21878 902.89485,-522.01538 898.02865,-519.85896 C 889.21225,-534.45801 873.21045,-544.22388 854.92325,-544.22389 C 847.72275,-544.22389 840.86115,-542.69551 834.66495,-539.96812 C 831.21365,-562.12711 812.04355,-579.11625 788.92165,-579.11625 C 770.66814,-579.11625 754.87584,-568.54044 747.33444,-553.18341 C 740.59074,-557.17524 732.88404,-559.73611 724.66194,-560.42568 C 724.83514,-562.65722 724.93564,-564.89449 724.93564,-567.17022 C 724.93564,-614.82217 686.25274,-653.50516 638.60074,-653.50516 z "
       style="fill:#ffffff;fill-opacity:1;fill-rule:nonzero;stroke:none;stroke-width:1;stroke-linecap:butt;stroke-linejoin:miter;stroke-miterlimit:4;stroke-dasharray:none;stroke-dashoffset:0;stroke-opacity:1;display:inline"
       id="path8765" />
    <path
       d="M 774.87085,-311.21373 C 763.52834,-311.21373 754.12944,-302.83409 752.53094,-291.93321 C 752.13114,-291.96877 751.72874,-291.99179 751.32014,-291.99179 C 743.51614,-291.99179 737.16064,-285.36534 736.98684,-277.13758 C 735.68294,-277.86588 734.18494,-278.28322 732.58644,-278.28322 C 727.59094,-278.28322 723.53204,-274.22432 723.53204,-269.22879 C 723.53204,-264.23326 728.64334,-258.75596 733.63894,-258.75596 C 775.97695,-258.61963 804.10705,-258.19709 846.29845,-258.47235 C 851.97875,-258.47235 857.17435,-261.16606 857.17435,-266.84639 C 857.17435,-272.52672 852.56345,-277.13758 846.88315,-277.13758 C 845.40215,-277.13758 843.99645,-276.82283 842.72365,-276.25883 C 840.41775,-280.07718 836.23255,-282.63142 831.44955,-282.63143 C 829.56625,-282.63143 827.77165,-282.23168 826.15105,-281.51834 C 825.24835,-287.31398 820.23445,-291.75745 814.18695,-291.75745 C 809.41275,-291.75745 805.28235,-288.99137 803.30995,-284.97477 C 801.54605,-286.01883 799.53045,-286.68862 797.37995,-286.86897 C 797.42525,-287.45263 797.45155,-288.03778 797.45155,-288.63299 C 797.45155,-301.09627 787.33405,-311.21373 774.87085,-311.21373 z "
       style="fill:#ffffff;fill-opacity:1;fill-rule:nonzero;stroke:none;stroke-width:1;stroke-linecap:butt;stroke-linejoin:miter;stroke-miterlimit:4;stroke-dasharray:none;stroke-dashoffset:0;stroke-opacity:1;display:inline"
       id="path8767" />
    <path
       d="M 729.79724,-29.11785 C 692.74414,-29.11785 662.03994,-1.74341 656.81784,33.86737 C 655.51164,33.7512 654.19704,33.67599 652.86264,33.67599 C 627.36864,33.67599 606.60654,55.32312 606.03834,82.2014 C 601.77914,79.82222 596.88574,78.45885 591.66364,78.45885 C 575.34434,78.45885 562.08494,91.71838 562.08494,108.03768 C 562.08494,124.35697 578.78244,142.25008 595.10174,142.25009 C 733.41094,142.69545 825.30565,144.07579 963.13545,143.17657 C 981.69195,143.17657 998.66465,134.37685 998.66465,115.82045 C 998.66465,97.26406 983.60205,82.2014 965.04555,82.2014 C 960.20755,82.2014 955.61535,83.22961 951.45765,85.07209 C 943.92485,72.59839 930.25245,64.25424 914.62765,64.25423 C 908.47525,64.25423 902.61255,65.56011 897.31845,67.89044 C 894.36955,48.95736 877.99025,34.44151 858.23435,34.44151 C 842.63825,34.44151 829.14505,43.47769 822.70155,56.59904 C 816.93955,53.18834 810.35475,51.00028 803.32965,50.4111 C 803.47765,48.50442 803.56355,46.59286 803.56355,44.64843 C 803.56355,3.93365 770.51204,-29.11785 729.79724,-29.11785 z "
       style="fill:#ffffff;fill-opacity:1;fill-rule:nonzero;stroke:none;stroke-width:1;stroke-linecap:butt;stroke-linejoin:miter;stroke-miterlimit:4;stroke-dasharray:none;stroke-dashoffset:0;stroke-opacity:1;display:inline"
       id="path8769" />
    <path
       d="M 748.27084,328.02624 C 722.98144,328.02624 702.02554,346.70971 698.46124,371.01461 C 697.56954,370.93532 696.67254,370.88399 695.76164,370.88399 C 678.36164,370.88399 664.19104,385.65848 663.80334,404.00332 C 660.89644,402.3795 657.55654,401.44898 653.99244,401.44898 C 642.85424,401.44898 633.80454,410.49885 633.80454,421.63695 C 633.80454,432.77515 645.20084,444.98745 656.33904,444.98745 C 750.73704,445.29145 813.45675,446.23355 907.52775,445.61985 C 920.19265,445.61985 931.77685,439.61385 931.77685,426.94885 C 931.77685,414.28385 921.49635,404.00332 908.83125,404.00332 C 905.52935,404.00332 902.39515,404.70509 899.55745,405.96261 C 894.41595,397.44912 885.08445,391.75411 874.42035,391.7541 C 870.22125,391.7541 866.21985,392.64538 862.60645,394.23587 C 860.59385,381.31375 849.41495,371.40646 835.93105,371.40646 C 825.28655,371.40646 816.07725,377.57379 811.67935,386.52932 C 807.74675,384.20146 803.25255,382.70808 798.45785,382.30595 C 798.55875,381.00462 798.61735,379.69994 798.61735,378.37284 C 798.61735,350.58439 776.05925,328.02624 748.27084,328.02624 z "
       style="fill:#ffffff;fill-opacity:1;fill-rule:nonzero;stroke:none;stroke-width:1;stroke-linecap:butt;stroke-linejoin:miter;stroke-miterlimit:4;stroke-dasharray:none;stroke-dashoffset:0;stroke-opacity:1;display:inline"
       id="path8771" />
    <path
       d="M 902.00565,452.02333 C 874.20885,452.02333 851.17495,472.55923 847.25735,499.27403 C 846.27735,499.18683 845.29125,499.13043 844.29025,499.13043 C 825.16485,499.13043 809.58935,515.36983 809.16325,535.53366 C 805.96805,533.74886 802.29695,532.72606 798.37945,532.72606 C 786.13695,532.72606 776.18985,542.67316 776.18975,554.91566 C 776.18975,567.15826 788.71625,580.58146 800.95875,580.58146 C 904.71655,580.91556 973.65485,581.95106 1077.0532,581.27646 C 1090.974,581.27646 1103.7067,574.67506 1103.7067,560.75426 C 1103.7067,546.83346 1092.4069,535.53366 1078.4861,535.53366 C 1074.8566,535.53366 1071.4117,536.30496 1068.2926,537.68726 C 1062.6415,528.32956 1052.3847,522.06983 1040.6632,522.06983 C 1036.0478,522.06983 1031.6496,523.04953 1027.678,524.79776 C 1025.4658,510.59433 1013.1782,499.70473 998.35765,499.70473 C 986.65755,499.70473 976.53515,506.48353 971.70135,516.32703 C 967.37875,513.76833 962.43895,512.12693 957.16875,511.68493 C 957.27975,510.25453 957.34425,508.82053 957.34425,507.36183 C 957.34425,476.81813 932.54935,452.02333 902.00565,452.02333 z "
       style="fill:#ffffff;fill-opacity:1;fill-rule:nonzero;stroke:none;stroke-width:1;stroke-linecap:butt;stroke-linejoin:miter;stroke-miterlimit:4;stroke-dasharray:none;stroke-dashoffset:0;stroke-opacity:1;display:inline"
       id="path8773" />
    <path
       d="M 1008.0699,956.77656 C 982.76035,956.77656 961.78765,975.47486 958.22065,999.79916 C 957.32825,999.71986 956.43045,999.66846 955.51895,999.66846 C 938.10495,999.66846 923.92315,1014.4548 923.53515,1032.8143 C 920.62585,1031.1891 917.28335,1030.2579 913.71635,1030.2579 C 902.56925,1030.2579 893.51225,1039.3149 893.51225,1050.462 C 893.51225,1061.6091 904.91775,1073.8312 916.06485,1073.8312 C 1010.5382,1074.1354 1073.308,1075.0783 1167.4537,1074.464 C 1180.129,1074.464 1191.7225,1068.4533 1191.7225,1055.7782 C 1191.7225,1043.1029 1181.4339,1032.8143 1168.7585,1032.8143 C 1165.4539,1032.8143 1162.3171,1033.5166 1159.4771,1034.7751 C 1154.3318,1026.2548 1144.9928,1020.5553 1134.3201,1020.5553 C 1130.1178,1020.5553 1126.113,1021.4473 1122.4968,1023.039 C 1120.4825,1010.1066 1109.2946,1000.1914 1095.8001,1000.1914 C 1085.147,1000.1914 1075.9304,1006.3636 1071.5292,1015.3263 C 1067.5933,1012.9966 1063.0955,1011.502 1058.2968,1011.0996 C 1058.398,1009.7972 1058.4568,1008.4915 1058.4568,1007.1633 C 1058.4568,979.35266 1035.8805,956.77656 1008.0699,956.77656 z "
       style="fill:#ffffff;fill-opacity:1;fill-rule:nonzero;stroke:none;stroke-width:1;stroke-linecap:butt;stroke-linejoin:miter;stroke-miterlimit:4;stroke-dasharray:none;stroke-dashoffset:0;stroke-opacity:1;display:inline"
       id="path8775" />
    <path
       d="M 909.00865,1154.8141 C 888.21575,1154.8141 870.98555,1170.1757 868.05505,1190.1593 C 867.32195,1190.0941 866.58445,1190.0519 865.83545,1190.0519 C 851.52915,1190.0519 839.87805,1202.1995 839.55925,1217.2827 C 837.16925,1215.9476 834.42305,1215.1825 831.49265,1215.1825 C 822.33485,1215.1825 814.89405,1222.6233 814.89405,1231.7812 C 814.89405,1240.939 824.26415,1250.98 833.42215,1250.98 C 911.03655,1251.23 962.60465,1252.0046 1039.9502,1251.4999 C 1050.3635,1251.4999 1059.888,1246.5618 1059.888,1236.1486 C 1059.888,1225.7354 1051.4354,1217.2827 1041.0221,1217.2827 C 1038.3072,1217.2827 1035.7302,1217.8597 1033.397,1218.8937 C 1029.1699,1211.8938 1021.4975,1207.2114 1012.7293,1207.2114 C 1009.2769,1207.2114 1005.9869,1207.9442 1003.0159,1209.2519 C 1001.3611,1198.6273 992.16955,1190.4815 981.08335,1190.4815 C 972.33115,1190.4815 964.75935,1195.5523 961.14335,1202.9155 C 957.90995,1201.0016 954.21485,1199.7737 950.27265,1199.4431 C 950.35555,1198.3731 950.40375,1197.3004 950.40375,1196.2092 C 950.40375,1173.3615 931.85645,1154.8141 909.00865,1154.8141 z "
       style="fill:#ffffff;fill-opacity:1;fill-rule:nonzero;stroke:none;stroke-width:1;stroke-linecap:butt;stroke-linejoin:miter;stroke-miterlimit:4;stroke-dasharray:none;stroke-dashoffset:0;stroke-opacity:1;display:inline"
       id="path8777" />
    <path
       d="M 1070.6465,1314.9849 C 1030.3354,1314.9849 996.93155,1344.7663 991.25015,1383.5083 C 989.82895,1383.3819 988.39915,1383.3001 986.94715,1383.3001 C 959.21165,1383.3001 936.62385,1406.8506 936.00585,1436.0922 C 931.37215,1433.5038 926.04835,1432.0206 920.36725,1432.0206 C 902.61305,1432.0206 888.18765,1446.446 888.18765,1464.2002 C 888.18765,1481.9543 906.35335,1501.4208 924.10765,1501.4208 C 1074.5779,1501.9053 1174.5527,1503.407 1324.5015,1502.4287 C 1344.6895,1502.4287 1363.1546,1492.8552 1363.1546,1472.6672 C 1363.1546,1452.4792 1346.7675,1436.0922 1326.5795,1436.0922 C 1321.316,1436.0922 1316.3202,1437.2108 1311.7968,1439.2153 C 1303.6016,1425.6448 1288.7271,1416.567 1271.7284,1416.567 C 1265.0351,1416.567 1258.6569,1417.9877 1252.8974,1420.5229 C 1249.6891,1399.9251 1231.8698,1384.1329 1210.3767,1384.1329 C 1193.4093,1384.1329 1178.7297,1393.9636 1171.7196,1408.2387 C 1165.4508,1404.5281 1158.2873,1402.1476 1150.6445,1401.5066 C 1150.8053,1399.4323 1150.8989,1397.3527 1150.8989,1395.2373 C 1150.8989,1350.9426 1114.9413,1314.9849 1070.6465,1314.9849 z "
       style="fill:#ffffff;fill-opacity:1;fill-rule:nonzero;stroke:none;stroke-width:1;stroke-linecap:butt;stroke-linejoin:miter;stroke-miterlimit:4;stroke-dasharray:none;stroke-dashoffset:0;stroke-opacity:1;display:inline"
       id="path8779" />
    <path
       d="M 841.51385,1696.6492 C 805.28135,1696.6492 775.25725,1723.4174 770.15074,1758.2394 C 768.87334,1758.1259 767.58804,1758.0523 766.28314,1758.0523 C 741.35354,1758.0523 721.05134,1779.22 720.49584,1805.503 C 716.33104,1803.1765 711.54594,1801.8434 706.43944,1801.8434 C 690.48164,1801.8434 677.51584,1814.8092 677.51584,1830.7671 C 677.51584,1846.7249 693.84364,1864.2218 709.80144,1864.2218 C 845.04735,1864.6573 934.90705,1866.0071 1069.6843,1865.1278 C 1087.8296,1865.1278 1104.4267,1856.5229 1104.4267,1838.3775 C 1104.4267,1820.2321 1089.6975,1805.503 1071.5521,1805.503 C 1066.8212,1805.503 1062.3307,1806.5085 1058.265,1808.3101 C 1050.899,1796.1127 1037.5296,1787.9533 1022.2507,1787.9533 C 1016.2347,1787.9533 1010.5017,1789.2303 1005.3249,1791.509 C 1002.4413,1772.9952 986.42485,1758.8009 967.10645,1758.8009 C 951.85575,1758.8009 938.66135,1767.6369 932.36055,1780.4677 C 926.72625,1777.1325 920.28725,1774.9929 913.41765,1774.4168 C 913.56235,1772.5523 913.64635,1770.6831 913.64635,1768.7817 C 913.64635,1728.9687 881.32695,1696.6492 841.51385,1696.6492 z "
       style="fill:#ffffff;fill-opacity:1;fill-rule:nonzero;stroke:none;stroke-width:1;stroke-linecap:butt;stroke-linejoin:miter;stroke-miterlimit:4;stroke-dasharray:none;stroke-dashoffset:0;stroke-opacity:1;display:inline"
       id="path8781" />
    <path
       d="M 1053.4098,-481.8314 C 1066.3548,-481.8314 1077.0813,-472.26793 1078.906,-459.82703 C 1079.3621,-459.86762 1079.8213,-459.89389 1080.2877,-459.89389 C 1089.194,-459.89389 1096.4476,-452.3313 1096.6459,-442.94117 C 1098.1341,-443.77235 1099.8435,-444.24865 1101.6681,-444.24865 C 1107.3692,-444.24865 1112.0016,-439.61634 1112.0016,-433.91507 C 1112.0016,-428.2138 1106.1681,-421.9627 1100.4669,-421.96269 C 1052.1474,-421.8071 1020.0432,-421.32487 971.89155,-421.63902 C 965.40845,-421.63902 959.47895,-424.71327 959.47895,-431.19609 C 959.47895,-437.67891 964.74135,-442.94117 971.22405,-442.94117 C 972.91415,-442.94117 974.51855,-442.58195 975.97095,-441.93827 C 978.60265,-446.29605 983.37945,-449.21115 988.83805,-449.21115 C 990.98715,-449.21115 993.03555,-448.75493 994.88505,-447.94081 C 995.91515,-454.55523 1001.6374,-459.62645 1008.5395,-459.62645 C 1013.988,-459.62645 1018.702,-456.4696 1020.953,-451.88555 C 1022.9662,-453.0771 1025.2666,-453.84152 1027.7208,-454.04736 C 1027.6691,-454.71347 1027.639,-455.38129 1027.639,-456.06059 C 1027.639,-470.28461 1039.1858,-481.8314 1053.4098,-481.8314 z "
       style="fill:#ffffff;fill-opacity:1;fill-rule:nonzero;stroke:none;stroke-width:1;stroke-linecap:butt;stroke-linejoin:miter;stroke-miterlimit:4;stroke-dasharray:none;stroke-dashoffset:0;stroke-opacity:1;display:inline"
       id="path8783" />
    <path
       d="M 1231.004,-366.72678 C 1277.1969,-366.72678 1315.4748,-332.59996 1321.9851,-288.2052 C 1323.6137,-288.35002 1325.2523,-288.44378 1326.9159,-288.44378 C 1358.6985,-288.44378 1384.582,-261.45702 1385.2901,-227.94875 C 1390.5999,-230.91479 1396.7005,-232.61446 1403.2107,-232.61446 C 1423.5554,-232.61446 1440.0856,-216.08425 1440.0856,-195.73953 C 1440.0856,-175.39481 1419.2691,-153.08805 1398.9244,-153.08803 C 1226.4991,-152.53281 1111.937,-150.81198 940.10895,-151.93301 C 916.97525,-151.93301 895.81585,-162.90335 895.81585,-186.037 C 895.81585,-209.17064 914.59405,-227.94875 937.72765,-227.94875 C 943.75905,-227.94875 949.48395,-226.66692 954.66735,-224.36995 C 964.05835,-239.92051 981.10305,-250.32289 1000.5821,-250.32291 C 1008.252,-250.32291 1015.5609,-248.69491 1022.1609,-245.78976 C 1025.8372,-269.393 1046.2567,-287.48944 1070.8856,-287.48944 C 1090.3289,-287.48944 1107.1504,-276.22433 1115.1834,-259.86638 C 1122.3666,-264.11838 1130.5756,-266.84616 1139.3336,-267.58068 C 1139.1492,-269.95767 1139.042,-272.34075 1139.042,-274.76481 C 1139.042,-325.52256 1180.2461,-366.72678 1231.004,-366.72678 z "
       style="fill:#ffffff;fill-opacity:1;fill-rule:nonzero;stroke:none;stroke-width:1;stroke-linecap:butt;stroke-linejoin:miter;stroke-miterlimit:4;stroke-dasharray:none;stroke-dashoffset:0;stroke-opacity:1;display:inline"
       id="path8785" />
    <path
       d="M 1273.2646,-71.53327 C 1310.2534,-71.53327 1340.9042,-44.20642 1346.1173,-8.65756 C 1347.4213,-8.77353 1348.7334,-8.84861 1350.0656,-8.84861 C 1375.5152,-8.84861 1396.2414,12.76089 1396.8084,39.59244 C 1401.0602,37.2174 1405.9452,35.85641 1411.1582,35.85641 C 1427.449,35.85641 1440.6855,49.09288 1440.6855,65.3838 C 1440.6855,81.67472 1424.0169,99.53673 1407.726,99.53675 C 1269.6574,99.98134 1177.9224,101.35928 1040.3321,100.46162 C 1021.808,100.46162 1004.8647,91.67718 1004.8647,73.15305 C 1004.8647,54.62891 1019.9013,39.59244 1038.4253,39.59244 C 1043.2549,39.59244 1047.8391,40.61887 1051.9897,42.45815 C 1059.5095,30.00612 1073.1579,21.67648 1088.7556,21.67647 C 1094.8973,21.67647 1100.7497,22.98008 1106.0348,25.30636 C 1108.9785,6.40619 1125.3293,-8.08442 1145.0508,-8.08442 C 1160.6198,-8.08442 1174.0895,0.93604 1180.5219,14.03459 C 1186.2739,10.62982 1192.8472,8.44556 1199.8601,7.8574 C 1199.7124,5.95404 1199.6266,4.0458 1199.6266,2.10475 C 1199.6266,-38.53924 1232.6207,-71.53327 1273.2646,-71.53327 z "
       style="fill:#ffffff;fill-opacity:1;fill-rule:nonzero;stroke:none;stroke-width:1;stroke-linecap:butt;stroke-linejoin:miter;stroke-miterlimit:4;stroke-dasharray:none;stroke-dashoffset:0;stroke-opacity:1;display:inline"
       id="path8787" />
    <path
       d="M 1116.45,149.67469 C 1153.4087,149.67469 1184.0342,176.97919 1189.2432,212.49897 C 1190.546,212.3831 1191.8572,212.30808 1193.1882,212.30808 C 1218.6173,212.30808 1239.3262,233.8999 1239.8928,260.70951 C 1244.1411,258.33641 1249.0221,256.97653 1254.2307,256.97653 C 1270.5085,256.97653 1283.7342,270.20219 1283.7342,286.47979 C 1283.7342,302.75739 1267.0791,320.60479 1250.8014,320.60479 C 1112.8458,321.04899 1021.1858,322.42579 883.70805,321.52889 C 865.19905,321.52889 848.26965,312.75169 848.26965,294.24269 C 848.26965,275.73369 863.29395,260.70951 881.80295,260.70951 C 886.62845,260.70951 891.20895,261.73509 895.35605,263.57287 C 902.86975,251.13103 916.50705,242.8082 932.09205,242.80818 C 938.22855,242.80818 944.07635,244.11073 949.35695,246.43511 C 952.29825,227.55041 968.63565,213.07164 988.34115,213.07164 C 1003.8974,213.07164 1017.3562,222.08473 1023.7832,235.17256 C 1029.5305,231.77057 1036.0984,229.58811 1043.1056,229.00042 C 1042.958,227.09862 1042.8723,225.19194 1042.8723,223.25248 C 1042.8723,182.64174 1075.8394,149.67469 1116.45,149.67469 z "
       style="fill:#ffffff;fill-opacity:1;fill-rule:nonzero;stroke:none;stroke-width:1;stroke-linecap:butt;stroke-linejoin:miter;stroke-miterlimit:4;stroke-dasharray:none;stroke-dashoffset:0;stroke-opacity:1;display:inline"
       id="path8789" />
    <path
       d="M 1320.1303,407.38182 C 1349.1018,407.38182 1373.1089,428.78552 1377.1921,456.62912 C 1378.2134,456.53822 1379.2412,456.47942 1380.2847,456.47942 C 1400.218,456.47942 1416.4517,473.40502 1416.8957,494.42082 C 1420.226,492.56052 1424.0522,491.49452 1428.1353,491.49452 C 1440.8951,491.49452 1451.2625,501.86202 1451.2625,514.62182 C 1451.2625,527.38166 1438.2068,541.37206 1425.447,541.37206 C 1317.305,541.72036 1245.4537,542.79956 1137.6863,542.09646 C 1123.1773,542.09646 1109.9066,535.21616 1109.9066,520.70712 C 1109.9066,506.19812 1121.684,494.42082 1136.193,494.42082 C 1139.9757,494.42082 1143.5663,495.22472 1146.8172,496.66532 C 1152.7071,486.91232 1163.3972,480.38812 1175.614,480.38812 C 1180.4245,480.38812 1185.0085,481.40922 1189.1479,483.23122 C 1191.4536,468.42772 1204.2603,457.07802 1219.7072,457.07802 C 1231.9016,457.07802 1242.4517,464.14322 1247.4898,474.40262 C 1251.9951,471.73592 1257.1436,470.02502 1262.6364,469.56442 C 1262.5207,468.07362 1262.4536,466.57892 1262.4536,465.05862 C 1262.4536,433.22432 1288.296,407.38182 1320.1303,407.38182 z "
       style="fill:#ffffff;fill-opacity:1;fill-rule:nonzero;stroke:none;stroke-width:1;stroke-linecap:butt;stroke-linejoin:miter;stroke-miterlimit:4;stroke-dasharray:none;stroke-dashoffset:0;stroke-opacity:1;display:inline"
       id="path8791" />
    <path
       d="M 1228.2022,724.14376 C 1267.1083,724.14376 1299.3477,752.88706 1304.8311,790.27866 C 1306.2026,790.15666 1307.5829,790.07766 1308.9841,790.07766 C 1335.753,790.07766 1357.5533,812.80726 1358.1498,841.02966 C 1362.622,838.53146 1367.7602,837.09996 1373.2434,837.09996 C 1390.3787,837.09996 1404.3013,851.02256 1404.3013,868.15786 C 1404.3013,885.29316 1386.7686,904.08106 1369.6333,904.08106 C 1224.408,904.54876 1127.918,905.99806 983.19575,905.05396 C 963.71145,905.05396 945.88995,895.81416 945.88995,876.32986 C 945.88995,856.84546 961.70585,841.02966 981.19015,841.02966 C 986.27005,841.02966 991.09185,842.10926 995.45755,844.04386 C 1003.3672,830.94636 1017.7231,822.18496 1034.1293,822.18496 C 1040.5893,822.18496 1046.7452,823.55616 1052.3041,826.00306 C 1055.4004,806.12316 1072.5986,790.88146 1093.3425,790.88146 C 1109.7186,790.88146 1123.8865,800.36946 1130.6522,814.14696 C 1136.7024,810.56576 1143.6164,808.26826 1150.9928,807.64966 C 1150.8375,805.64756 1150.7471,803.64046 1150.7471,801.59876 C 1150.7471,758.84806 1185.4515,724.14376 1228.2022,724.14376 z "
       style="fill:#ffffff;fill-opacity:1;fill-rule:nonzero;stroke:none;stroke-width:1;stroke-linecap:butt;stroke-linejoin:miter;stroke-miterlimit:4;stroke-dasharray:none;stroke-dashoffset:0;stroke-opacity:1;display:inline"
       id="path8793" />
    <path
       d="M 1323.4366,1015.6029 C 1340.734,1015.6029 1355.0674,1028.3819 1357.5052,1045.0059 C 1358.1151,1044.9517 1358.7286,1044.9166 1359.3516,1044.9166 C 1371.2529,1044.9166 1380.9452,1055.022 1381.2104,1067.5696 C 1383.1987,1066.4589 1385.4831,1065.8224 1387.9208,1065.8224 C 1395.5391,1065.8224 1401.729,1072.0123 1401.729,1079.6306 C 1401.729,1087.2488 1393.9341,1095.6018 1386.3158,1095.6018 C 1321.7497,1095.8097 1278.851,1096.4541 1214.5085,1096.0343 C 1205.8458,1096.0343 1197.9226,1091.9264 1197.9226,1083.2638 C 1197.9226,1074.6012 1204.9543,1067.5696 1213.6169,1067.5696 C 1215.8754,1067.5696 1218.0189,1068.0495 1219.96,1068.9097 C 1223.4766,1063.0866 1229.859,1059.1914 1237.1532,1059.1914 C 1240.0254,1059.1914 1242.7621,1059.801 1245.2334,1060.8888 C 1246.6102,1052.0503 1254.2565,1045.2739 1263.479,1045.2739 C 1270.7596,1045.2739 1277.0586,1049.4923 1280.0666,1055.6177 C 1282.7565,1054.0254 1285.8304,1053.004 1289.1099,1052.7289 C 1289.0408,1051.8389 1289.0007,1050.9465 1289.0007,1050.0388 C 1289.0007,1031.0321 1304.4299,1015.6029 1323.4366,1015.6029 z "
       style="fill:#ffffff;fill-opacity:1;fill-rule:nonzero;stroke:none;stroke-width:1;stroke-linecap:butt;stroke-linejoin:miter;stroke-miterlimit:4;stroke-dasharray:none;stroke-dashoffset:0;stroke-opacity:1;display:inline"
       id="path8795" />
    <path
       d="M 1309.243,1508.9531 C 1348.2077,1508.9531 1380.4957,1537.7397 1385.9874,1575.1876 C 1387.3611,1575.0654 1388.7433,1574.9863 1390.1465,1574.9863 C 1416.9559,1574.9863 1438.7891,1597.7502 1439.3863,1626.015 C 1443.8652,1623.5131 1449.0113,1622.0794 1454.5026,1622.0794 C 1471.6637,1622.0794 1485.6074,1636.023 1485.6074,1653.1841 C 1485.6074,1670.3453 1468.0483,1689.1615 1450.8872,1689.1615 C 1305.443,1689.6298 1208.8077,1691.0814 1063.8675,1690.1357 C 1044.3539,1690.1357 1026.5055,1680.8821 1026.5055,1661.3684 C 1026.5055,1641.8547 1042.3453,1626.015 1061.8589,1626.015 C 1066.9464,1626.015 1071.7756,1627.0963 1076.1479,1629.0338 C 1084.0693,1615.9166 1098.447,1607.142 1114.8778,1607.142 C 1121.3476,1607.142 1127.5127,1608.5152 1133.08,1610.9658 C 1136.1809,1591.056 1153.4051,1575.7913 1174.1803,1575.7913 C 1190.5809,1575.7913 1204.7702,1585.2936 1211.546,1599.0919 C 1217.6054,1595.5053 1224.5297,1593.2043 1231.9173,1592.5847 C 1231.7616,1590.5797 1231.6713,1588.5695 1231.6713,1586.5248 C 1231.6713,1543.7096 1266.428,1508.9531 1309.243,1508.9531 z "
       style="fill:#ffffff;fill-opacity:1;fill-rule:nonzero;stroke:none;stroke-width:1;stroke-linecap:butt;stroke-linejoin:miter;stroke-miterlimit:4;stroke-dasharray:none;stroke-dashoffset:0;stroke-opacity:1;display:inline"
       id="path8797" />
    <path
       d="M 1510.9709,1696.6492 C 1534.5591,1696.6492 1554.1054,1714.0758 1557.43,1736.7457 C 1558.2615,1736.6718 1559.0982,1736.6239 1559.9478,1736.6239 C 1576.1773,1736.6239 1589.3946,1750.4045 1589.7564,1767.5153 C 1592.4676,1766.0007 1595.5828,1765.1328 1598.9073,1765.1328 C 1609.296,1765.1328 1617.7371,1773.5738 1617.7371,1783.9627 C 1617.7371,1794.3516 1607.1074,1805.7424 1596.7185,1805.7424 C 1508.6706,1806.0259 1450.17,1806.9047 1362.4273,1806.3322 C 1350.6143,1806.3322 1339.8094,1800.7303 1339.8094,1788.9172 C 1339.8094,1777.1042 1349.3983,1767.5153 1361.2113,1767.5153 C 1364.2913,1767.5153 1367.2145,1768.1698 1369.8615,1769.3428 C 1374.6569,1761.402 1383.3607,1756.0901 1393.3075,1756.0901 C 1397.2241,1756.0901 1400.9564,1756.9214 1404.3266,1758.4049 C 1406.2039,1746.352 1416.631,1737.1112 1429.2077,1737.1112 C 1439.1362,1737.1112 1447.7259,1742.8637 1451.8279,1751.2168 C 1455.4961,1749.0455 1459.6879,1747.6526 1464.1601,1747.2775 C 1464.0659,1746.0637 1464.0112,1744.8468 1464.0112,1743.609 C 1464.0112,1717.6899 1485.0518,1696.6492 1510.9709,1696.6492 z "
       style="fill:#ffffff;fill-opacity:1;fill-rule:nonzero;stroke:none;stroke-width:1;stroke-linecap:butt;stroke-linejoin:miter;stroke-miterlimit:4;stroke-dasharray:none;stroke-dashoffset:0;stroke-opacity:1;display:inline"
       id="path8799" />
    <path
       d="M 1437.4518,-561.99372 C 1398.9455,-561.99372 1367.0373,-533.54568 1361.6103,-496.53832 C 1360.2528,-496.65904 1358.8868,-496.7372 1357.5,-496.7372 C 1331.0061,-496.7372 1309.4298,-474.24111 1308.8394,-446.3087 C 1304.4131,-448.78118 1299.3276,-450.19802 1293.901,-450.19802 C 1276.9416,-450.19802 1263.1619,-436.41848 1263.1619,-419.45917 C 1263.1619,-402.49986 1280.5147,-383.90501 1297.4739,-383.90499 C 1441.2072,-383.44216 1536.7059,-382.00768 1679.9414,-382.94217 C 1699.2253,-382.94217 1716.8638,-392.08702 1716.8638,-411.37117 C 1716.8638,-430.65532 1701.2104,-446.3087 1681.9263,-446.3087 C 1676.8984,-446.3087 1672.1263,-445.24016 1667.8054,-443.32542 C 1659.9771,-456.28833 1645.7686,-464.95972 1629.531,-464.95974 C 1623.1374,-464.95974 1617.0448,-463.60264 1611.543,-461.18092 C 1608.4785,-480.85652 1591.4568,-495.94166 1570.9262,-495.94166 C 1554.7184,-495.94166 1540.696,-486.5511 1533.9997,-472.91515 C 1528.0116,-476.45961 1521.1688,-478.73348 1513.8681,-479.34578 C 1514.0219,-481.32722 1514.1112,-483.31376 1514.1112,-485.33444 C 1514.1112,-527.64598 1479.7634,-561.99372 1437.4518,-561.99372 z "
       style="fill:#ffffff;fill-opacity:1;fill-rule:nonzero;stroke:none;stroke-width:1;stroke-linecap:butt;stroke-linejoin:miter;stroke-miterlimit:4;stroke-dasharray:none;stroke-dashoffset:0;stroke-opacity:1;display:inline"
       id="path8801" />
    <path
       d="M 1634.6909,-226.08358 C 1593.1987,-226.08358 1558.8159,-195.42951 1552.9681,-155.55236 C 1551.5053,-155.68245 1550.0333,-155.76667 1548.5391,-155.76667 C 1519.9907,-155.76667 1496.7411,-131.52609 1496.1049,-101.42763 C 1491.3356,-104.09184 1485.8557,-105.61855 1480.008,-105.61855 C 1461.7337,-105.61855 1446.8856,-90.77046 1446.8856,-72.49602 C 1446.8856,-54.22158 1465.5838,-34.18476 1483.8582,-34.18475 C 1638.7375,-33.68603 1741.6418,-32.14031 1895.9845,-33.14727 C 1916.7641,-33.14727 1935.7702,-43.00127 1935.7702,-63.78082 C 1935.7702,-84.56038 1918.9029,-101.42763 1898.1234,-101.42763 C 1892.7057,-101.42763 1887.5634,-100.27623 1882.9074,-98.213 C 1874.4721,-112.18114 1859.1619,-121.52497 1841.665,-121.52498 C 1834.7756,-121.52498 1828.2106,-120.06265 1822.2821,-117.45313 C 1818.9799,-138.6545 1800.6383,-154.90944 1778.5156,-154.90944 C 1761.051,-154.90944 1745.9412,-144.79067 1738.7257,-130.09731 C 1732.2733,-133.91662 1724.8998,-136.36683 1717.033,-137.0266 C 1717.1987,-139.1617 1717.2949,-141.30228 1717.2949,-143.47967 C 1717.2949,-189.0723 1680.2837,-226.08358 1634.6909,-226.08358 z "
       style="fill:#ffffff;fill-opacity:1;fill-rule:nonzero;stroke:none;stroke-width:1;stroke-linecap:butt;stroke-linejoin:miter;stroke-miterlimit:4;stroke-dasharray:none;stroke-dashoffset:0;stroke-opacity:1;display:inline"
       id="path8803" />
    <path
       d="M 1441.0863,143.64826 C 1418.1966,143.64826 1399.229,160.55883 1396.0031,182.55738 C 1395.1961,182.48562 1394.3841,182.43916 1393.5598,182.43916 C 1377.8108,182.43916 1364.9851,195.81167 1364.6341,212.41574 C 1362.0031,210.946 1358.9802,210.10378 1355.7541,210.10378 C 1345.6728,210.10378 1337.482,218.29485 1337.482,228.3761 C 1337.482,238.45734 1347.7968,249.51082 1357.8781,249.51082 C 1443.3184,249.78595 1500.0864,250.63865 1585.2308,250.08316 C 1596.6942,250.08316 1607.179,244.64712 1607.179,233.18391 C 1607.179,221.72069 1597.8739,212.41574 1586.4109,212.41574 C 1583.4222,212.41574 1580.5854,213.05091 1578.0169,214.18911 C 1573.3634,206.48347 1564.9173,201.32887 1555.2651,201.32887 C 1551.4644,201.32887 1547.8428,202.13557 1544.5722,203.57514 C 1542.7507,191.87923 1532.6324,182.91206 1520.4282,182.91206 C 1510.7937,182.91206 1502.4582,188.49416 1498.4779,196.59987 C 1494.9182,194.49291 1490.8507,193.14124 1486.5107,192.77727 C 1486.6021,191.59942 1486.6553,190.41856 1486.6553,189.21738 C 1486.6553,164.06583 1466.2378,143.64826 1441.0863,143.64826 z "
       style="fill:#ffffff;fill-opacity:1;fill-rule:nonzero;stroke:none;stroke-width:1;stroke-linecap:butt;stroke-linejoin:miter;stroke-miterlimit:4;stroke-dasharray:none;stroke-dashoffset:0;stroke-opacity:1;display:inline"
       id="path8805" />
    <path
       d="M 1635.5784,324.3884 C 1596.2268,324.3884 1563.6181,353.46091 1558.0719,391.28065 C 1556.6845,391.15728 1555.2887,391.0774 1553.8714,391.0774 C 1526.7959,391.0774 1504.7459,414.06732 1504.1426,442.61288 C 1499.6192,440.08618 1494.4222,438.63818 1488.8762,438.63818 C 1471.5446,438.63818 1457.4626,452.72018 1457.4626,470.05178 C 1457.4626,487.38338 1475.196,506.38648 1492.5276,506.38648 C 1639.4162,506.85948 1737.0112,508.32538 1883.3907,507.37038 C 1903.0983,507.37038 1921.1239,498.02488 1921.1239,478.31738 C 1921.1239,458.60988 1905.1268,442.61288 1885.4193,442.61288 C 1880.2813,442.61288 1875.4042,443.70488 1870.9885,445.66168 C 1862.9883,432.41418 1848.468,423.55248 1831.8739,423.55248 C 1825.3399,423.55248 1819.1136,424.93928 1813.491,427.41418 C 1810.3593,407.30669 1792.964,391.8904 1771.9825,391.8904 C 1755.419,391.8904 1741.0889,401.4871 1734.2456,415.42239 C 1728.1262,411.80012 1721.1329,409.47633 1713.672,408.8506 C 1713.8292,406.82565 1713.9205,404.79551 1713.9205,402.73047 C 1713.9205,359.49012 1678.8187,324.3884 1635.5784,324.3884 z "
       style="fill:#ffffff;fill-opacity:1;fill-rule:nonzero;stroke:none;stroke-width:1;stroke-linecap:butt;stroke-linejoin:miter;stroke-miterlimit:4;stroke-dasharray:none;stroke-dashoffset:0;stroke-opacity:1;display:inline"
       id="path8807" />
    <path
       d="M 1395.6993,598.37406 C 1372.7341,598.37406 1353.704,615.34046 1350.4674,637.41166 C 1349.6577,637.33966 1348.843,637.29306 1348.016,637.29306 C 1332.2149,637.29306 1319.3467,650.70976 1318.9947,667.36866 C 1316.3549,665.89406 1313.3219,665.04906 1310.0854,665.04906 C 1299.9708,665.04906 1291.7526,673.26726 1291.7526,683.38176 C 1291.7526,693.49636 1302.1017,704.58626 1312.2162,704.58636 C 1397.9391,704.86236 1454.8946,705.71786 1540.3202,705.16056 C 1551.8213,705.16056 1562.3408,699.70656 1562.3408,688.20546 C 1562.3408,676.70436 1553.0052,667.36866 1541.5041,667.36866 C 1538.5055,667.36866 1535.6592,668.00596 1533.0823,669.14796 C 1528.4136,661.41686 1519.9396,656.24516 1510.2555,656.24516 C 1506.4424,656.24516 1502.8086,657.05456 1499.5274,658.49886 C 1497.6997,646.76436 1487.5481,637.76756 1475.3035,637.76756 C 1465.6371,637.76756 1457.2742,643.36806 1453.2805,651.50056 C 1449.7093,649.38666 1445.6281,648.03056 1441.274,647.66536 C 1441.3657,646.48356 1441.419,645.29886 1441.419,644.09366 C 1441.419,618.85906 1420.934,598.37406 1395.6993,598.37406 z "
       style="fill:#ffffff;fill-opacity:1;fill-rule:nonzero;stroke:none;stroke-width:1;stroke-linecap:butt;stroke-linejoin:miter;stroke-miterlimit:4;stroke-dasharray:none;stroke-dashoffset:0;stroke-opacity:1;display:inline"
       id="path8809" />
    <path
       d="M 1625.879,711.54536 C 1578.2949,711.54536 1538.8644,746.69986 1532.1581,792.43146 C 1530.4805,792.28226 1528.7924,792.18566 1527.0787,792.18566 C 1494.339,792.18566 1467.6762,819.98516 1466.9467,854.50246 C 1461.477,851.44706 1455.1928,849.69626 1448.4865,849.69626 C 1427.5292,849.69626 1410.5013,866.72426 1410.5013,887.68156 C 1410.5013,908.63896 1431.9445,931.61746 1452.9019,931.61746 C 1630.5195,932.18936 1748.5314,933.96206 1925.5337,932.80726 C 1949.364,932.80726 1971.1605,921.50656 1971.1605,897.67626 C 1971.1605,873.84596 1951.817,854.50246 1927.9865,854.50246 C 1921.7736,854.50246 1915.8763,855.82286 1910.5369,858.18896 C 1900.863,842.17016 1883.3051,831.45456 1863.2394,831.45456 C 1855.3386,831.45456 1847.8096,833.13156 1841.0108,836.12416 C 1837.2239,811.81016 1816.1895,793.16876 1790.8189,793.16876 C 1770.7902,793.16876 1753.4622,804.77316 1745.1872,821.62366 C 1737.7877,817.24366 1729.3314,814.43366 1720.3098,813.67706 C 1720.4997,811.22846 1720.6101,808.77366 1720.6101,806.27656 C 1720.6101,753.99036 1678.1651,711.54536 1625.879,711.54536 z "
       style="fill:#ffffff;fill-opacity:1;fill-rule:nonzero;stroke:none;stroke-width:1;stroke-linecap:butt;stroke-linejoin:miter;stroke-miterlimit:4;stroke-dasharray:none;stroke-dashoffset:0;stroke-opacity:1;display:inline"
       id="path8811" />
    <path
       d="M 1485.4015,1022.6542 C 1468.9731,1022.6542 1455.3598,1034.7912 1453.0445,1050.58 C 1452.4653,1050.5285 1451.8826,1050.4951 1451.2909,1050.4951 C 1439.9876,1050.4951 1430.7823,1060.0929 1430.5305,1072.0099 C 1428.642,1070.9551 1426.4725,1070.3506 1424.1571,1070.3506 C 1416.9217,1070.3506 1411.0428,1076.2295 1411.0427,1083.4649 C 1411.0427,1090.7004 1418.446,1098.6337 1425.6816,1098.6337 C 1487.0034,1098.8311 1527.747,1099.4431 1588.8565,1099.0445 C 1597.0838,1099.0445 1604.609,1095.1429 1604.609,1086.9156 C 1604.609,1078.6882 1597.9307,1072.0099 1589.7033,1072.0099 C 1587.5584,1072.0099 1585.5224,1072.4658 1583.6789,1073.2827 C 1580.339,1067.7522 1574.277,1064.0527 1567.3498,1064.0527 C 1564.6218,1064.0527 1562.0224,1064.6317 1559.6753,1065.6649 C 1558.3676,1057.2705 1551.1057,1050.8345 1542.3466,1050.8345 C 1535.4316,1050.8345 1529.4491,1054.841 1526.5922,1060.6586 C 1524.0377,1059.1464 1521.1182,1058.1763 1518.0034,1057.9151 C 1518.0692,1057.0697 1518.1071,1056.2222 1518.1071,1055.3601 C 1518.1071,1037.3083 1503.4532,1022.6542 1485.4015,1022.6542 z "
       style="fill:#ffffff;fill-opacity:1;fill-rule:nonzero;stroke:none;stroke-width:1;stroke-linecap:butt;stroke-linejoin:miter;stroke-miterlimit:4;stroke-dasharray:none;stroke-dashoffset:0;stroke-opacity:1;display:inline"
       id="path8813" />
    <path
       d="M 1427.7829,1148.7584 C 1393.4274,1148.7584 1364.9588,1174.1398 1360.1167,1207.1578 C 1358.9055,1207.0501 1357.6869,1206.9804 1356.4496,1206.9804 C 1332.8116,1206.9804 1313.5611,1227.0514 1313.0345,1251.9728 C 1309.0854,1249.7668 1304.5482,1248.5027 1299.7063,1248.5027 C 1284.5752,1248.5027 1272.281,1260.7969 1272.281,1275.928 C 1272.281,1291.0591 1287.763,1307.6495 1302.8942,1307.6495 C 1431.1334,1308.0625 1516.3375,1309.3423 1644.1325,1308.5085 C 1661.3376,1308.5085 1677.0747,1300.3495 1677.0747,1283.1441 C 1677.0747,1265.9388 1663.1088,1251.9728 1645.9034,1251.9728 C 1641.4176,1251.9728 1637.1598,1252.9261 1633.3047,1254.6345 C 1626.3203,1243.0689 1613.6435,1235.3323 1599.1562,1235.3323 C 1593.4517,1235.3323 1588.0159,1236.5431 1583.1072,1238.7038 C 1580.373,1221.1492 1565.1863,1207.6901 1546.8688,1207.6901 C 1532.4082,1207.6901 1519.8974,1216.0684 1513.9229,1228.2345 C 1508.5804,1225.0721 1502.4752,1223.0433 1495.9615,1222.497 C 1496.0988,1220.7292 1496.1783,1218.9568 1496.1783,1217.1539 C 1496.1783,1179.4035 1465.5333,1148.7584 1427.7829,1148.7584 z "
       style="fill:#ffffff;fill-opacity:1;fill-rule:nonzero;stroke:none;stroke-width:1;stroke-linecap:butt;stroke-linejoin:miter;stroke-miterlimit:4;stroke-dasharray:none;stroke-dashoffset:0;stroke-opacity:1;display:inline"
       id="path8815" />
    <path
       d="M 1711.8518,1404.2006 C 1685.5106,1404.2006 1663.6826,1423.6613 1659.97,1448.9773 C 1659.0415,1448.8947 1658.1071,1448.8412 1657.1584,1448.8412 C 1639.0343,1448.8412 1624.2745,1464.2303 1623.8707,1483.3383 C 1620.8428,1481.6469 1617.3639,1480.6777 1613.6515,1480.6777 C 1602.05,1480.6777 1592.6237,1490.104 1592.6237,1501.7055 C 1592.6237,1513.307 1604.4942,1526.0274 1616.0958,1526.0274 C 1714.4208,1526.344 1779.7495,1527.3253 1877.7338,1526.6861 C 1890.9258,1526.6861 1902.9917,1520.4303 1902.9917,1507.2384 C 1902.9917,1494.0465 1892.2837,1483.3383 1879.0917,1483.3383 C 1875.6524,1483.3383 1872.3878,1484.0693 1869.4319,1485.3791 C 1864.0767,1476.5115 1854.357,1470.5795 1843.2493,1470.5795 C 1838.8754,1470.5795 1834.7077,1471.5079 1830.944,1473.1645 C 1828.8476,1459.7049 1817.2035,1449.3854 1803.1588,1449.3854 C 1792.0714,1449.3854 1782.479,1455.8093 1777.8983,1465.1374 C 1773.8019,1462.7127 1769.1209,1461.1572 1764.1266,1460.7383 C 1764.2317,1459.3829 1764.2929,1458.0239 1764.2929,1456.6416 C 1764.2929,1427.6972 1740.7963,1404.2006 1711.8518,1404.2006 z "
       style="fill:#ffffff;fill-opacity:1;fill-rule:nonzero;stroke:none;stroke-width:1;stroke-linecap:butt;stroke-linejoin:miter;stroke-miterlimit:4;stroke-dasharray:none;stroke-dashoffset:0;stroke-opacity:1;display:inline"
       id="path8817" />
    <path
       d="M 1662.4689,1812.722 C 1626.8453,1812.722 1597.3256,1839.0404 1592.305,1873.2773 C 1591.0491,1873.1656 1589.7852,1873.0933 1588.5024,1873.0933 C 1563.9916,1873.0933 1544.0306,1893.9053 1543.4844,1919.7467 C 1539.3896,1917.4593 1534.6849,1916.1485 1529.6643,1916.1485 C 1513.9745,1916.1485 1501.2267,1928.8965 1501.2267,1944.5862 C 1501.2267,1960.2759 1517.2801,1977.4787 1532.9698,1977.4788 C 1665.9431,1977.9069 1754.2928,1979.234 1886.8053,1978.3695 C 1904.6459,1978.3695 1920.9638,1969.9092 1920.9638,1952.0687 C 1920.9638,1934.2282 1906.4822,1919.7467 1888.6416,1919.7467 C 1883.9903,1919.7467 1879.5753,1920.7352 1875.578,1922.5066 C 1868.3358,1910.5141 1855.1909,1902.4919 1840.1688,1902.4919 C 1834.2538,1902.4919 1828.6173,1903.7474 1823.5274,1905.9878 C 1820.6922,1887.7851 1804.9449,1873.8293 1785.9512,1873.8293 C 1770.9568,1873.8293 1757.984,1882.5169 1751.7892,1895.132 C 1746.2493,1891.8529 1739.9187,1889.7492 1733.1645,1889.1828 C 1733.3068,1887.3497 1733.3895,1885.5119 1733.3895,1883.6424 C 1733.3895,1844.4984 1701.613,1812.722 1662.4689,1812.722 z "
       style="fill:#ffffff;fill-opacity:1;fill-rule:nonzero;stroke:none;stroke-width:1;stroke-linecap:butt;stroke-linejoin:miter;stroke-miterlimit:4;stroke-dasharray:none;stroke-dashoffset:0;stroke-opacity:1;display:inline"
       id="path8819" />
  </g>
</svg>
